<?xml version="1.0" encoding="utf-8"?>
<!-- Generator: Adobe Illustrator 16.0.0, SVG Export Plug-In . SVG Version: 6.00 Build 0)  -->
<!DOCTYPE svg PUBLIC "-//W3C//DTD SVG 1.1//EN" "http://www.w3.org/Graphics/SVG/1.1/DTD/svg11.dtd">
<svg version="1.1" id="Layer_1" xmlns="http://www.w3.org/2000/svg" xmlns:xlink="http://www.w3.org/1999/xlink" x="0px" y="0px"
	 width="178.3px" height="65.7px" viewBox="0 0 178.3 65.7" enable-background="new 0 0 178.3 65.7" xml:space="preserve">
<g>
	<path fill="#826726" d="M57.583,30.187h-5.732v6.064h-2.373V22.033h9.102v1.904h-6.729v4.346h5.732V30.187z"/>
	<path fill="#826726" d="M66.065,34.357h6.66v1.895h-9.033V22.033h2.373V34.357z"/>
	<path fill="#826726" d="M88.736,22.033v9.365c0,1.582-0.519,2.821-1.558,3.716s-2.378,1.343-4.019,1.343
		c-1.615,0-2.93-0.448-3.945-1.343s-1.523-2.134-1.523-3.716v-9.365h2.373v9.365c0,1.009,0.283,1.789,0.85,2.339
		c0.566,0.551,1.315,0.825,2.246,0.825c0.963,0,1.738-0.274,2.324-0.825c0.586-0.55,0.879-1.33,0.879-2.339v-9.365H88.736z"/>
	<path fill="#826726" d="M102.14,32.599c0-0.592-0.211-1.078-0.631-1.455s-1.163-0.716-2.23-1.016
		c-1.53-0.423-2.711-0.978-3.541-1.665s-1.244-1.583-1.244-2.69c0-1.146,0.455-2.09,1.367-2.832
		c0.911-0.742,2.083-1.113,3.516-1.113c1.536,0,2.765,0.412,3.686,1.235c0.922,0.824,1.366,1.841,1.334,3.052l-0.02,0.059h-2.285
		c0-0.749-0.25-1.344-0.748-1.787s-1.16-0.664-1.986-0.664c-0.801,0-1.418,0.189-1.852,0.566c-0.433,0.377-0.648,0.866-0.648,1.465
		c0,0.547,0.237,0.998,0.713,1.353c0.475,0.355,1.263,0.692,2.363,1.011c1.49,0.417,2.627,0.985,3.408,1.704
		s1.172,1.639,1.172,2.759c0,1.179-0.463,2.119-1.387,2.822c-0.925,0.703-2.139,1.055-3.643,1.055c-1.445,0-2.705-0.384-3.779-1.152
		s-1.596-1.853-1.563-3.252l0.02-0.059h2.285c0,0.853,0.294,1.495,0.883,1.929c0.59,0.434,1.308,0.649,2.154,0.649
		c0.84,0,1.492-0.177,1.957-0.532C101.907,33.684,102.14,33.205,102.14,32.599z"/>
	<path fill="#826726" d="M121.188,36.251h-2.373v-6.064h-6.357v6.064h-2.373V22.033h2.373v6.25h6.357v-6.25h2.373V36.251z"/>
</g>
</svg>
